<svg id="图层_1" data-name="图层 1" xmlns="http://www.w3.org/2000/svg" viewBox="0 0 30 24.01"><defs><style>.cls-1{fill:#fff;}</style></defs><title>foxit</title><path class="cls-1" d="M31,16.88a5.72,5.72,0,0,0-5.72-5.73H22.15A7.72,7.72,0,0,0,7.3,8.6a7,7,0,0,0-1,13.72,9.28,9.28,0,0,1,2.61-6.69c.21-.23.43-.44.65-.64l.72-.58a10.38,10.38,0,0,1,5.07-1.93h1.33a7.13,7.13,0,0,1,4.77,2.12,8.17,8.17,0,0,1,2,4.51L24,22.6h1.25A5.72,5.72,0,0,0,31,16.88Z" transform="translate(-1 -3.8)"/><path class="cls-1" d="M16.55,14.18h-1a8.41,8.41,0,0,0-5.37,2.61A7.51,7.51,0,0,0,8,22.59a5.51,5.51,0,0,0,5.59,5.22h.87a6.46,6.46,0,0,0,4-1.7,6.32,6.32,0,0,0,1.85-3.81,3.18,3.18,0,0,0-.95-2.75,8.06,8.06,0,0,1-.21,1.92c-.4-.53-.54-1.3-1.13-1.63,0,2-1.13,3.55-3.3,2.93q.62,1.62,2.94,1.53c.07.08-.07.17-.11.21a3.37,3.37,0,0,1-2.43,1,3.09,3.09,0,0,1-3.23-3.26,4.92,4.92,0,0,1,4.64-4.68,3.54,3.54,0,0,1,3,1.38c-.26-1.85-1.73-2.48-3.23-3.08,3.15-.15,4.56,1.46,5.51,3.51C21.38,16.46,19.76,14.43,16.55,14.18Z" transform="translate(-1 -3.8)"/></svg>