<svg xmlns="http://www.w3.org/2000/svg" xmlns:xlink="http://www.w3.org/1999/xlink" viewBox="0 0 592 168"><defs><style>.cls-1,.cls-4,.cls-6,.cls-7{fill:none;}.cls-2,.cls-3{fill:#fff;}.cls-3{opacity:0.5;isolation:isolate;}.cls-4,.cls-6,.cls-7{stroke:#fff;stroke-miterlimit:10;}.cls-4{stroke-width:2px;}.cls-5{clip-path:url(#clip-path);}.cls-6{stroke-width:7px;}.cls-7{stroke-width:4px;}.cls-8{clip-path:url(#clip-path-2);}.cls-9{clip-path:url(#clip-path-3);}</style><clipPath id="clip-path"><polygon class="cls-1" points="56.71 128.21 40.23 144.69 40.23 155.67 50.2 155.67 53.96 152.92 53.96 169.39 5.84 167.5 8.14 107.87 56.08 106.42 56.71 128.21"/></clipPath><clipPath id="clip-path-2"><polygon class="cls-1" points="422.13 148.04 435.63 162.66 423.31 172.94 409.81 158.32 422.13 148.04"/></clipPath><clipPath id="clip-path-3"><path class="cls-1" d="M424,156s-5-2-6-7-5,4-5,4a3.48,3.48,0,0,0-1,2c0,1,5,7,9,8s0,4,0,4H379V109h47Z"/></clipPath></defs><title>tools集合</title><g id="图层_2" data-name="图层 2"><g id="箭头"><rect class="cls-2" x="140" y="140" width="8" height="2"/><polygon class="cls-2" points="142 135.34 136.34 141 142 146.66 142 135.34"/></g><g id="箭头-2"><rect class="cls-2" x="74" y="140" width="8" height="2"/><polygon class="cls-2" points="80 135.34 85.66 141 80 146.66 80 135.34"/></g><polygon class="cls-2" points="112.93 145.07 120.09 145.07 112.93 137.91 112.93 145.07"/><path class="cls-2" d="M117,113H94a5,5,0,0,0-5,5v44a5,5,0,0,0,5,5h34a5,5,0,0,0,5-5V129Zm5,46.39a2.39,2.39,0,0,1-2.39,2.38H103.39a2.39,2.39,0,0,1-2.39-2.38v-21a2.39,2.39,0,0,1,2.39-2.39h11l7.61,7.64ZM114,132V117l15,15Z"/></g><g id="图层_3" data-name="图层 3"><g id="箭头-2-2" data-name="箭头"><rect class="cls-2" x="8.98" y="104" width="14.02" height="1.94"/><polygon class="cls-2" points="22 99.01 27.98 104.98 21.98 110.98 22 99.01"/></g><path class="cls-2" d="M55.75,78H41.17A3.17,3.17,0,0,0,38,81.15v27.7A3.17,3.17,0,0,0,41.17,112H62.72a3.17,3.17,0,0,0,3.17-3.15V88.07Zm-1.9,12V80.52L63.35,90Z"/><path class="cls-2" d="M36,81a5,5,0,0,1,5-5h2V62a5,5,0,0,0-5-5H14a5,5,0,0,0-5,5V92a5,5,0,0,0,5,5H36Zm-9.46-8.08a9.1,9.1,0,0,1-.29-1.87H26.2a9.56,9.56,0,0,1-.33,1.85L22.18,86H19.47L14.21,67.85H16.8l3.7,13.71a8.39,8.39,0,0,1,.3,1.86h.07a10.77,10.77,0,0,1,.38-1.86l3.93-13.71h2.31l3.75,13.81a12.65,12.65,0,0,1,.3,1.74h.05a9.81,9.81,0,0,1,.34-1.78l3.56-13.77H38L32.93,86H30.2Z"/></g><g id="图层_4" data-name="图层 4"><path class="cls-2" d="M481.63,85.22h-.14a9,9,0,0,1-.39,1.92l-2.6,7.92h6L482,87.2A8.34,8.34,0,0,1,481.63,85.22Z"/><path class="cls-2" d="M487.64,57h-23a5,5,0,0,0-5,5v44a5,5,0,0,0,5,5h34a5,5,0,0,0,5-5V73Zm-.24,47-1.7-5.2h-8.25l-1.67,5.2h-5.24l8.3-22.69h5.69L492.67,104Zm-2.76-28V61l15,15Z"/></g><g id="图层_5" data-name="图层 5"><g id="箭头-3" data-name="箭头"><rect class="cls-2" x="304.98" y="103" width="14.02" height="1.94"/><polygon class="cls-2" points="318 98.01 323.98 103.98 317.98 109.98 318 98.01"/></g><path class="cls-2" d="M351.75,77H337.17A3.17,3.17,0,0,0,334,80.15v27.7a3.17,3.17,0,0,0,3.17,3.15h21.55a3.17,3.17,0,0,0,3.17-3.15V87.07Zm-1.9,12V79.52l9.5,9.48Z"/><path class="cls-2" d="M332,80a4.93,4.93,0,0,1,.43-2H311V76h22v1a5,5,0,0,1,4-2h2V63a5,5,0,0,0-5-5H310a5,5,0,0,0-5,5V89.88L309.89,85H332ZM311,64h22v2H311Zm0,6h22v2H311Z"/></g><g id="图层_6" data-name="图层 6"><path class="cls-3" d="M536.64,82h-12A2.61,2.61,0,0,0,522,84.58h0v22.82a2.61,2.61,0,0,0,2.61,2.59h17.78a2.61,2.61,0,0,0,2.61-2.59V90.3Zm-1.57,9.85V84.07l7.84,7.78Z"/><path class="cls-3" d="M581.64,82h-12A2.61,2.61,0,0,0,567,84.58h0v22.82a2.61,2.61,0,0,0,2.61,2.59h17.78a2.61,2.61,0,0,0,2.61-2.59V90.3Zm-1.57,9.85V84.07l7.84,7.78Z"/><path class="cls-2" d="M560.67,58H545.33A3.34,3.34,0,0,0,542,61.33V90.67A3.34,3.34,0,0,0,545.33,94H568a3.34,3.34,0,0,0,3.33-3.33v-22Zm-2,12.67v-10l10,10Z"/><rect class="cls-2" x="575" y="65" width="9" height="1.94"/><rect class="cls-2" x="582" y="65" width="2" height="9"/><polygon class="cls-2" points="586.98 72.98 582.98 76.98 578.99 73 586.98 72.98"/><rect class="cls-2" x="527.98" y="65" width="9" height="1.94"/><rect class="cls-2" x="527.98" y="65" width="2" height="9"/><polygon class="cls-2" points="532.99 73 529.01 76.98 525 72.98 532.99 73"/></g><g id="图层_7" data-name="图层 7"><path class="cls-4" d="M542.44,159.72c3.61,2,11,5.56,19.59,4.12,2.55-.42,7.81-1.44,8.85-4.67,1.46-4.55-7.21-8.32-6-13.1s11-8,18-5.24a11.92,11.92,0,0,1,2.81,1.46"/><rect class="cls-2" x="551.71" y="123.53" width="20.81" height="7.74" rx="2" ry="2" transform="translate(74.56 434.79) rotate(-45)"/><rect class="cls-2" x="532.89" y="142.29" width="22.94" height="7.74" rx="2" ry="2" transform="translate(56.09 427.73) rotate(-45)"/><polygon class="cls-2" points="535 150 533 157 541 155 535 150"/><rect class="cls-2" x="554.5" y="119.5" width="9" height="2" transform="translate(78.52 430.57) rotate(-45)"/><polygon class="cls-2" points="540 156 535 156 535 151 540 156"/><polygon class="cls-2" points="539 156 533 157 535 151 539 156"/></g><g id="图层_8" data-name="图层 8"><g class="cls-5"><path class="cls-2" d="M36,113H13a5,5,0,0,0-5,5v44a5,5,0,0,0,5,5H47a5,5,0,0,0,5-5V129Zm-3,19V117l15,15Z"/></g><g id="renamne"><line class="cls-6" x1="64.75" y1="131.79" x2="62.53" y2="134.02"/><line class="cls-6" x1="61.07" y1="135.53" x2="46.63" y2="149.97"/><polygon class="cls-2" points="47.46 154.23 42.55 154.23 42.55 149.34 47.46 154.23"/></g></g><g id="图层_9" data-name="图层 9"><g id="箭头-4" data-name="箭头"><rect class="cls-2" x="229.98" y="104" width="14.02" height="1.94"/><polygon class="cls-2" points="243 99.01 248.98 104.98 242.98 110.98 243 99.01"/></g><path class="cls-2" d="M257,80.56A11,11,0,1,1,247,65V76h11a6.91,6.91,0,0,1,0,.91,3.21,3.21,0,0,1,2.17-.91H264V62a5,5,0,0,0-5-5H235a5,5,0,0,0-5,5V92a5,5,0,0,0,5,5h22ZM249,63a11,11,0,0,1,11,11H249Z"/><path class="cls-2" d="M276.75,78H262.17A3.17,3.17,0,0,0,259,81.15v27.7a3.17,3.17,0,0,0,3.17,3.15h21.55a3.17,3.17,0,0,0,3.17-3.15V88.07Zm-1.9,12V80.52l9.5,9.48Z"/></g><g id="图层_10" data-name="图层 10"><path class="cls-2" d="M324.58,22.44h12V12.85L324.74,1h-17A3.73,3.73,0,0,0,304,4.7h0V37.3a3.72,3.72,0,0,0,3.7,3.7h16.88ZM322.52,4l11.11,11.07H322.52Z"/><g id="箭头-5" data-name="箭头"><rect class="cls-2" x="303.98" y="48" width="14.02" height="1.94"/><polygon class="cls-2" points="317 43.01 322.98 48.98 316.98 54.98 317 43.01"/></g><rect class="cls-2" x="320" y="20" width="9" height="21"/><path class="cls-2" d="M358,25H336a5,5,0,0,0-5,5V55l5-5h22a5,5,0,0,0,5-5V30A5,5,0,0,0,358,25Zm-1,18H337V41h20Zm0-5H337V36h20Zm0-5H337V31h20Z"/></g><g id="图层_11" data-name="图层 11"><path class="cls-2" d="M251.58,22.44h12V12.85L251.74,1h-17A3.73,3.73,0,0,0,231,4.7h0V37.3a3.72,3.72,0,0,0,3.7,3.7h16.88ZM249.52,4l11.11,11.07H249.52Z"/><g id="箭头-6" data-name="箭头"><rect class="cls-2" x="230.98" y="48" width="14.02" height="1.94"/><polygon class="cls-2" points="244 43.01 249.98 48.98 243.98 54.98 244 43.01"/></g><rect class="cls-2" x="247" y="20" width="11" height="21"/><path class="cls-2" d="M284,24H264a3,3,0,0,0-3,3V52a3,3,0,0,0,3,3h20a3,3,0,0,0,3-3V27A3,3,0,0,0,284,24ZM274,48a8,8,0,0,1-1-15.93V41h8.93A8,8,0,0,1,274,48Zm1-9V31a8,8,0,0,1,8,8Z"/></g><g id="图层_12" data-name="图层 12"><path class="cls-2" d="M177.58,22.44h12V12.85L177.74,1h-17A3.73,3.73,0,0,0,157,4.7h0V37.3a3.72,3.72,0,0,0,3.7,3.7h16.88ZM175.52,4l11.11,11.07H175.52Z"/><g id="箭头-7" data-name="箭头"><rect class="cls-2" x="156.98" y="48" width="14.02" height="1.94"/><polygon class="cls-2" points="170 43.01 175.98 48.98 169.98 54.98 170 43.01"/></g><rect class="cls-2" x="173" y="20" width="9" height="21"/><path class="cls-2" d="M210,27H190a5,5,0,0,0-5,5V47.71a5,5,0,0,0,5,5h20a5,5,0,0,0,5-5V32A5,5,0,0,0,210,27Zm-17.16,4.33A2.84,2.84,0,1,1,190,34.17h0a2.83,2.83,0,0,1,2.83-2.83ZM189,48l6.29-8.85L199.58,43l6.77-9.76L211,48Z"/></g><g id="图层_13" data-name="图层 13"><path class="cls-2" d="M398.58,22.44h12V12.85L398.74,1h-17A3.73,3.73,0,0,0,378,4.7h0V37.3a3.72,3.72,0,0,0,3.7,3.7h16.88ZM396.52,4l11.11,11.07H396.52Z"/><path class="cls-2" d="M418,56a17,17,0,1,0-17-17A17,17,0,0,0,418,56Zm0-2.07h-.87a22,22,0,0,1-2.81-6.06,33.28,33.28,0,0,1,3.46-.19c1.12,0,2.23.06,3.34.17a22.15,22.15,0,0,1-2.83,6.1Zm-4.2-8.11a31.61,31.61,0,0,1-.72-5.82h9.27a32,32,0,0,1-.71,5.77,33.16,33.16,0,0,0-7.84,0Zm9.39,2.29a26.82,26.82,0,0,1,5.35,1.46,15,15,0,0,1-7.65,4.08A25.82,25.82,0,0,0,423.19,48.11Zm.5-2a33.11,33.11,0,0,0,.73-6.11h8.47A14.88,14.88,0,0,1,430,47.92a29.57,29.57,0,0,0-6.31-1.82Zm.73-8.11a34.49,34.49,0,0,0-.71-6A29.29,29.29,0,0,0,430,30.16,14.75,14.75,0,0,1,432.89,38Zm-2.07,0h-9.27a31.17,31.17,0,0,1,.7-5.69,33.42,33.42,0,0,0,4,.24,33.52,33.52,0,0,0,3.88-.22A31.83,31.83,0,0,1,422.35,38ZM411,38h-7.9a14.85,14.85,0,0,1,2.77-7.67A29.05,29.05,0,0,0,411.73,32,33.58,33.58,0,0,0,411,38Zm0,2a33.67,33.67,0,0,0,.74,6.09,29.22,29.22,0,0,0-5.81,1.66A14.86,14.86,0,0,1,403.11,40Zm-3.67,9.41a28.67,28.67,0,0,1,4.91-1.31,25.41,25.41,0,0,0,2.21,5.37,14.87,14.87,0,0,1-7.11-4Zm21.28-20.9a27.18,27.18,0,0,1-5.4,1.49,26,26,0,0,0-2.32-5.64A15,15,0,0,1,428.61,28.51Zm-10.32-4.43a22.51,22.51,0,0,1,2.85,6.2,31.5,31.5,0,0,1-3.36.17,31.22,31.22,0,0,1-3.48-.19,22.22,22.22,0,0,1,2.83-6.16H418Zm-3.84.42a26,26,0,0,0-2.22,5.5,27.74,27.74,0,0,1-5-1.34A15.06,15.06,0,0,1,414.45,24.5Z"/><rect class="cls-2" x="379.98" y="48" width="14.02" height="1.94"/><polygon class="cls-2" points="393 43.01 398.98 48.98 392.98 54.98 393 43.01"/></g><g id="图层_14" data-name="图层 14"><path class="cls-2" d="M103.58,22.44h12V12.85L103.74,1h-17A3.73,3.73,0,0,0,83,4.7h0V37.3A3.72,3.72,0,0,0,86.7,41h16.88ZM101.52,4l11.11,11.07H101.52Z"/><rect class="cls-2" x="99" y="20" width="11" height="21"/><g id="箭头-8" data-name="箭头"><rect class="cls-2" x="82.98" y="48" width="14.02" height="1.94"/><polygon class="cls-2" points="96 43.01 101.98 48.98 95.98 54.98 96 43.01"/></g><rect class="cls-2" x="119" y="32" width="7" height="3"/><rect class="cls-2" x="127" y="46" width="7" height="3"/><rect class="cls-2" x="119" y="36" width="7" height="9"/><rect class="cls-2" x="127" y="36" width="7" height="9"/><path class="cls-2" d="M135,24H118a5,5,0,0,0-5,5V51a5,5,0,0,0,5,5h17a5,5,0,0,0,5-5V29A5,5,0,0,0,135,24Zm0,8V50H118V31h17Z"/><rect class="cls-2" x="127" y="32" width="7" height="3"/><rect class="cls-2" x="119" y="46" width="7" height="3"/></g><g id="图层_15" data-name="图层 15"><path class="cls-2" d="M472.58,134.44h12v-9.59L472.74,113h-17a3.73,3.73,0,0,0-3.74,3.7h0v32.6a3.72,3.72,0,0,0,3.7,3.7h16.88ZM470.52,116l11.11,11.07H470.52Z"/><g id="箭头-9" data-name="箭头"><rect class="cls-2" x="451.98" y="160" width="14.02" height="1.94"/><polygon class="cls-2" points="465 155.01 470.98 160.98 464.98 166.98 465 155.01"/></g><path class="cls-2" d="M498.57,136H484.94a3,3,0,0,0-3,3v26a3,3,0,0,0,3,3h20.15a3,3,0,0,0,3-3V145.48ZM495,165a8,8,0,1,1,8-8A8,8,0,0,1,495,165Zm1.8-17.74v-8.89l8.89,8.89Z"/><path class="cls-2" d="M495,151a6,6,0,1,0,6,6A6,6,0,0,0,495,151Zm2.07,9.29a3.6,3.6,0,0,1-4.51-.43,4,4,0,0,1-1-2.83,4.15,4.15,0,0,1,1-2.94,3.36,3.36,0,0,1,2.58-1.09,3.16,3.16,0,0,1,2.27.82,3,3,0,0,1,.77,1.4l-1.51.36a1.58,1.58,0,0,0-1.57-1.27,1.72,1.72,0,0,0-1.37.6,3,3,0,0,0-.52,2,3.14,3.14,0,0,0,.52,2,1.65,1.65,0,0,0,1.34.61,1.53,1.53,0,0,0,1.06-.39,2.21,2.21,0,0,0,.59-1.13l1.49.47A3.35,3.35,0,0,1,497.07,160.29Z"/><rect class="cls-2" x="468" y="132" width="11" height="21"/></g><g id="图层_16" data-name="图层 16"><path class="cls-2" d="M257.52,152.26v3.44h1.94v-3.44a2.42,2.42,0,1,0-1.94,0Z"/><path class="cls-2" d="M264.79,113h-23a5,5,0,0,0-5,5v44a5,5,0,0,0,5,5h34a5,5,0,0,0,5-5V129ZM269,159H248V144.3h4.19v-2.58a5.81,5.81,0,0,1,5.81-5.81h1a5.81,5.81,0,0,1,5.81,5.81h0v2.58H269Zm-7.21-27V117l15,15Z"/><path class="cls-2" d="M263.28,144.29V142.8c0-3-2.15-5.46-4.79-5.46s-4.79,2.46-4.79,5.46v1.49Z"/></g><g id="图层_17" data-name="图层 17"><rect class="cls-2" x="195.83" y="141" width="4.33" height="6.5"/><rect class="cls-2" x="196" y="160.5" width="4.17" height="6.5"/><rect class="cls-2" x="185" y="151.83" width="6.5" height="4.46"/><rect class="cls-2" x="204.5" y="151.83" width="6.5" height="4.46"/><rect class="cls-2" x="188.93" y="143.86" width="4.33" height="6.5" transform="translate(-48.05 178.21) rotate(-45)"/><rect class="cls-2" x="202.73" y="157.65" width="4.33" height="6.5" transform="translate(-53.76 192.01) rotate(-45)"/><rect class="cls-2" x="187.91" y="158.7" width="6.5" height="4.46" transform="translate(-57.8 182.31) rotate(-45)"/><rect class="cls-2" x="201.69" y="144.92" width="6.5" height="4.46" transform="translate(-44.02 188.02) rotate(-45)"/><circle class="cls-7" cx="198" cy="154" r="6.5"/><path class="cls-2" d="M183,139h14V127.82L183.18,114H163.32a4.34,4.34,0,0,0-4.32,4.32v38a4.34,4.34,0,0,0,4.32,4.32H183Zm-2.41-21.55,13,13h-13Z"/></g><g id="图层_18" data-name="图层 18"><path class="cls-3" d="M535.64,2h-12A2.61,2.61,0,0,0,521,4.58h0V27.41A2.61,2.61,0,0,0,523.61,30h17.78A2.61,2.61,0,0,0,544,27.41V10.3Zm-1.57,9.85V4.07l7.84,7.78Z"/><path class="cls-3" d="M580.64,2h-12A2.61,2.61,0,0,0,566,4.58h0V27.41A2.61,2.61,0,0,0,568.61,30h17.78A2.61,2.61,0,0,0,589,27.41V10.3Zm-1.57,9.85V4.07l7.84,7.78Z"/><path class="cls-2" d="M559.67,18H544.33A3.34,3.34,0,0,0,541,21.33V50.67A3.34,3.34,0,0,0,544.33,54H567a3.34,3.34,0,0,0,3.33-3.33v-22Zm-2,12.67v-10l10,10Z"/><rect class="cls-2" x="584.04" y="37" width="1.94" height="9"/><rect class="cls-2" x="576.98" y="44" width="9" height="2"/><polygon class="cls-2" points="578 48.98 574 44.98 577.98 40.99 578 48.98"/><rect class="cls-2" x="524" y="37" width="1.94" height="9"/><rect class="cls-2" x="524" y="44" width="9" height="2"/><polygon class="cls-2" points="532 40.99 535.98 44.98 531.98 48.98 532 40.99"/></g><g id="图层_19" data-name="图层 19"><g id="箭头-10" data-name="箭头"><rect class="cls-2" x="156.98" y="103" width="14.02" height="1.94"/><polygon class="cls-2" points="170 98.01 175.98 103.98 169.98 109.98 170 98.01"/></g><path class="cls-2" d="M203.75,77H189.17A3.17,3.17,0,0,0,186,80.15v27.7a3.17,3.17,0,0,0,3.17,3.15h21.55a3.17,3.17,0,0,0,3.17-3.15V87.07Zm-1.9,12V79.52l9.5,9.48Z"/><path class="cls-2" d="M184,83H160l8-11.46,5.46,5,8.62-12.61,3.79,12.21A5,5,0,0,1,189,75h2V63a5,5,0,0,0-5-5H162a5,5,0,0,0-5,5V82a5,5,0,0,0,5,5h22ZM164,61a3,3,0,1,1-3,3A3,3,0,0,1,164,61Z"/></g><g id="图层_20" data-name="图层 20"><g id="箭头-11" data-name="箭头"><rect class="cls-2" x="381.98" y="104" width="14.02" height="1.94"/><polygon class="cls-2" points="395 99.01 400.98 104.98 394.98 110.98 395 99.01"/></g><path class="cls-2" d="M426.81,78H412.33a3.15,3.15,0,0,0-3.14,3.15v27.7a3.15,3.15,0,0,0,3.14,3.15h21.41a3.16,3.16,0,0,0,3.15-3.15V88.07Zm-1.88,12V80.52L434.37,90Z"/><path class="cls-2" d="M400,57a20,20,0,1,0,5.88,39.12V93.55a19.21,19.21,0,0,1-2.47.68,30.2,30.2,0,0,0,2.7-6.52h0c.22-.76.42-1.55.6-2.36h0a39.78,39.78,0,0,0,.85-7.13h.05V75.78h-.06a40.18,40.18,0,0,0-.83-7,33.63,33.63,0,0,0,7.42-2.18,17.44,17.44,0,0,1,3.38,9.18h2.42A20,20,0,0,0,400,57Zm0,2.43h.34a25.72,25.72,0,0,1,3.36,7.32c-1.31.13-2.63.2-3.95.2a37.6,37.6,0,0,1-4.11-.23A25.87,25.87,0,0,1,399,59.47C399.32,59.45,399.66,59.43,400,59.43Zm4.3,9.69a36.42,36.42,0,0,1,.82,6.66H394.21A38.43,38.43,0,0,1,395,69.1a40.19,40.19,0,0,0,9.3,0Zm-8.47-9.18a30,30,0,0,0-2.62,6.44,32.59,32.59,0,0,1-5.83-1.57A17.53,17.53,0,0,1,395.83,59.94Zm-10.09,6.82a33.67,33.67,0,0,0,6.88,2,39.25,39.25,0,0,0-.84,7h-9.3A17.54,17.54,0,0,1,385.74,66.76Zm.07,20.57a17.38,17.38,0,0,1-3.33-9.11h9.3a40.13,40.13,0,0,0,.86,7.16A34.39,34.39,0,0,0,385.81,87.33Zm1.65,2a33.1,33.1,0,0,1,5.78-1.55,30,30,0,0,0,2.59,6.32,17.63,17.63,0,0,1-8.37-4.81Zm12.88,5.27H399a25.73,25.73,0,0,1-3.31-7.13,39.61,39.61,0,0,1,8,0,25.89,25.89,0,0,1-3.35,7.09Zm3.94-9.6a40.33,40.33,0,0,0-4.53-.26,40.85,40.85,0,0,0-4.69.28,37.08,37.08,0,0,1-.84-6.8h10.9A36.86,36.86,0,0,1,404.28,85Zm1.85-18.59a30.21,30.21,0,0,0-2.72-6.64,17.61,17.61,0,0,1,9.08,4.89A32.77,32.77,0,0,1,406.13,66.41Z"/></g><g id="图层_21" data-name="图层 21"><path class="cls-2" d="M339,113H316a5,5,0,0,0-5,5v44a5,5,0,0,0,5,5h34a5,5,0,0,0,5-5V129Zm-9,22h7v4h-7Zm0,6h7v2h-7Zm3.15,22.8-.07-.08-.08.08-13.32-13.33,4.47-4.47,5.85,5.85V145.1h7V151l5-5,4.47,4.47ZM336,132V117l15,15Z"/></g><g id="图层_22" data-name="图层 22"><g id="图层_11-2" data-name="图层 11"><circle class="cls-2" cx="393.84" cy="142.16" r="2.84"/></g><g id="图层_12-2" data-name="图层 12"><polygon class="cls-2" points="413 157 391 157 397.29 148.15 401.58 152.03 408.35 142.27 413 157"/></g><g id="图层_3-2" data-name="图层 3"><polygon class="cls-2" points="430.24 153.1 437.19 159.18 431.1 166.12 430.24 153.1"/></g><g class="cls-8"><rect class="cls-7" x="416" y="144" width="21.33" height="16" rx="7.5" ry="7.5"/></g><g class="cls-9"><path class="cls-2" d="M407,113H384a5,5,0,0,0-5,5v44a5,5,0,0,0,5,5h34a5,5,0,0,0,5-5V129Zm8,44a3,3,0,0,1-3,3H390a3,3,0,0,1-3-3V139a3,3,0,0,1,3-3h22a3,3,0,0,1,3,3Zm-11-25V117l15,15Z"/></g></g><g id="图层_23" data-name="图层 23"><g id="箭头-12" data-name="箭头"><rect class="cls-2" x="82.98" y="104" width="14.02" height="1.94"/><polygon class="cls-2" points="96 99.01 101.98 104.98 95.98 110.98 96 99.01"/></g><path class="cls-2" d="M129.75,78H115.17A3.17,3.17,0,0,0,112,81.15v27.7a3.17,3.17,0,0,0,3.17,3.15h21.55a3.17,3.17,0,0,0,3.17-3.15V88.07Zm-1.9,12V80.52l9.5,9.48Z"/><rect class="cls-2" x="100.5" y="84" width="9" height="4"/><rect class="cls-2" x="89.5" y="84" width="9" height="4"/><rect class="cls-2" x="89.5" y="73" width="9" height="9"/><rect class="cls-2" x="89.5" y="67" width="9" height="4"/><rect class="cls-2" x="100.5" y="67" width="9" height="4"/><rect class="cls-2" x="100.5" y="73" width="9" height="9"/><path class="cls-2" d="M110,90H87.5V65h24V77.44A5,5,0,0,1,115,76h1.5V62a5,5,0,0,0-5-5h-24a5,5,0,0,0-5,5V92a5,5,0,0,0,5,5H110Z"/></g><g id="图层_24" data-name="图层 24"><path class="cls-2" d="M476.76,15.69V56H509V15.69ZM506,51H481V49h25Zm0-7H481V42h25Zm0-7H481V35h25Zm0-6.9H481V20h25Z"/><polygon class="cls-2" points="475 37 457 37 457 35 475 35 475 30 457 30 457 28 475 28 475 23 457 23 457 21 475 21 475 16.1 457 16.1 457 6 482 6 482 12 485.03 12 485.03 1.69 452.76 1.69 452.76 42 475 42 475 37"/></g><g id="图层_25" data-name="图层 25"><path class="cls-2" d="M29.58,22.44h12V12.85L29.74,1h-17A3.73,3.73,0,0,0,9,4.7H9V37.3A3.72,3.72,0,0,0,12.7,41H29.58ZM27.52,4,38.63,15.07H27.52Z"/><rect class="cls-2" x="25" y="20" width="11" height="21"/><g id="箭头-13" data-name="箭头"><rect class="cls-2" x="8.98" y="48" width="14.02" height="1.94"/><polygon class="cls-2" points="22 43.01 27.98 48.98 21.98 54.98 22 43.01"/></g><path class="cls-2" d="M61,24H44a5,5,0,0,0-5,5V51a5,5,0,0,0,5,5H61a5,5,0,0,0,5-5V29A5,5,0,0,0,61,24ZM57.46,48H55.27l-2.36-8.34a4.86,4.86,0,0,1-.19-1.13h0a5.23,5.23,0,0,1-.24,1.11L49.87,48H47.74L44.18,36.12h2.19l2.37,8.81A5.53,5.53,0,0,1,48.9,46H49a4.62,4.62,0,0,1,.2-1.11l2.56-8.78H53.7l2.5,8.82A7.67,7.67,0,0,1,56.36,46h.09a5,5,0,0,1,.2-1.09L59,36.12h2Z"/></g></svg>